# xmcd
#
# Track frame offsets: 
#        150
#        35799
#        77668
#        113577
#        167570
#
# Disc length: 2503 seconds
#
# Revision: 0
# Processed by: cddbd v1.5.2PL0 Copyright (c) Steve Scherf et al.
# Submitted via: ExactAudioCopy v1.0b3
#
DISCID=3309c505
DTITLE=Chet Baker and The Lighthouse All-Stars - Modern CD018  West Co
DTITLE=ast Jazz - Chet Baker 1953
DYEAR=1953
DGENRE=Jazz
TTITLE0=Pirourette
TTITLE1=Witch Doctor
TTITLE2=Loaded
TTITLE3=I’ll Remember April
TTITLE4=Winter Wonderland
EXTD=The Encyclopedia of Jazz - Modern Jazz CD018\nMembran Music  2320
EXTD=97
EXTT0=
EXTT1=
EXTT2=
EXTT3=
EXTT4=
PLAYORDER=
